<svg width="24" height="15" viewBox="0 0 24 15" fill="none" xmlns="http://www.w3.org/2000/svg">
<path d="M17.6 4.22472V3.75C17.6 1.6125 13.817 0 8.8 0C3.783 0 0 1.6125 0 3.75V7.15909C0 8.93949 2.625 10.3543 6.4 10.7778V11.25C6.4 13.3875 10.183 15 15.2 15C20.217 15 24 13.3875 24 11.25V7.84091C24 6.0767 21.458 4.66023 17.6 4.22472ZM4.8 9.10824C2.841 8.64205 1.6 7.87415 1.6 7.15909V5.95994C2.416 6.45256 3.509 6.84972 4.8 7.11648V9.10824ZM12.8 7.11648C14.091 6.84972 15.184 6.45256 16 5.95994V7.15909C16 7.87415 14.759 8.64205 12.8 9.10824V7.11648ZM11.2 13.1991C9.241 12.733 8 11.9651 8 11.25V10.8946C8.263 10.9031 8.529 10.9091 8.8 10.9091C9.188 10.9091 9.567 10.898 9.939 10.8793C10.3523 11.0053 10.7732 11.1123 11.2 11.1997V13.1991ZM11.2 9.39631C10.4054 9.49635 9.60322 9.5462 8.8 9.54545C7.99678 9.5462 7.1946 9.49635 6.4 9.39631V7.36875C7.19578 7.45712 7.9975 7.50097 8.8 7.5C9.6025 7.50097 10.4042 7.45712 11.2 7.36875V9.39631ZM17.6 13.4872C16.0085 13.6861 14.3915 13.6861 12.8 13.4872V11.4545C13.5955 11.5457 14.3973 11.5912 15.2 11.5909C16.0025 11.5919 16.8042 11.548 17.6 11.4597V13.4872ZM22.4 11.25C22.4 11.9651 21.159 12.733 19.2 13.1991V11.2074C20.491 10.9406 21.584 10.5435 22.4 10.0509V11.25Z" fill="black"/>
</svg>
